# This file uses centimeters as units for non-parametric coordinates.

mtllib DirectionalArrowMarker1.mtl
g default
v -0.250543 0.000000 0.149743
v -0.125272 0.000000 0.252362
v 0.000000 0.000000 0.351344
v 0.125272 0.000000 0.252362
v 0.250543 0.000000 0.149743
v -0.250543 0.000000 -0.017286
v -0.125272 0.000000 -0.017286
v 0.000000 0.000000 -0.017286
v 0.125272 0.000000 -0.017286
v 0.250543 0.000000 -0.017286
v -0.250543 0.000000 -0.184315
v -0.125272 0.000000 -0.184315
v 0.125272 0.000000 -0.184315
v 0.250543 0.000000 -0.184315
v -0.250543 0.000000 -0.351344
v -0.125272 0.000000 -0.351344
v 0.125272 0.000000 -0.351344
v 0.250543 0.000000 -0.351344
v -0.250543 0.049343 0.149743
v -0.125272 0.049343 0.252362
v -0.125272 0.049343 -0.017286
v -0.250543 0.049343 -0.017286
v 0.000000 0.049343 0.351344
v 0.000000 0.049343 -0.017286
v 0.125272 0.049343 0.252362
v 0.125272 0.049343 -0.017286
v 0.250543 0.049343 0.149743
v 0.250543 0.049343 -0.017286
v -0.125272 0.049343 -0.184315
v -0.250543 0.049343 -0.184315
v 0.250543 0.049343 -0.184315
v 0.125272 0.049343 -0.184315
v -0.125272 0.049343 -0.351344
v -0.250543 0.049343 -0.351344
v 0.250543 0.049343 -0.351344
v 0.125272 0.049343 -0.351344
vt 0.375000 0.250000
vt 0.437500 0.250000
vt 0.500000 0.250000
vt 0.562500 0.250000
vt 0.625000 0.250000
vt 0.375000 0.333333
vt 0.437500 0.333333
vt 0.500000 0.333333
vt 0.562500 0.333333
vt 0.625000 0.333333
vt 0.375000 0.416667
vt 0.437500 0.416667
vt 0.562500 0.416667
vt 0.625000 0.416667
vt 0.375000 0.500000
vt 0.437500 0.500000
vt 0.562500 0.500000
vt 0.625000 0.500000
vt 0.375000 0.250000
vt 0.437500 0.250000
vt 0.437500 0.333333
vt 0.375000 0.333333
vt 0.500000 0.250000
vt 0.500000 0.333333
vt 0.562500 0.250000
vt 0.562500 0.333333
vt 0.625000 0.250000
vt 0.625000 0.333333
vt 0.437500 0.416667
vt 0.375000 0.416667
vt 0.625000 0.416667
vt 0.562500 0.416667
vt 0.437500 0.500000
vt 0.375000 0.500000
vt 0.625000 0.500000
vt 0.562500 0.500000
vt 0.375000 0.250000
vt 0.437500 0.250000
vt 0.375000 0.333333
vt 0.500000 0.250000
vt 0.500000 0.333333
vt 0.437500 0.333333
vt 0.562500 0.250000
vt 0.562500 0.333333
vt 0.625000 0.250000
vt 0.625000 0.333333
vt 0.437500 0.416667
vt 0.375000 0.416667
vt 0.625000 0.416667
vt 0.562500 0.416667
vt 0.437500 0.500000
vt 0.375000 0.500000
vt 0.625000 0.500000
vt 0.562500 0.500000
vn 0.000000 1.000000 0.000000
vn 0.000000 1.000000 0.000000
vn 0.000000 1.000000 0.000000
vn 0.000000 1.000000 0.000000
vn 0.000000 1.000000 0.000000
vn 0.000000 1.000000 0.000000
vn 0.000000 1.000000 0.000000
vn 0.000000 1.000000 0.000000
vn 0.000000 1.000000 0.000000
vn 0.000000 1.000000 0.000000
vn 0.000000 1.000000 0.000000
vn 0.000000 1.000000 0.000000
vn 0.000000 1.000000 0.000000
vn 0.000000 1.000000 0.000000
vn 0.000000 1.000000 0.000000
vn 0.000000 1.000000 0.000000
vn 0.000000 1.000000 0.000000
vn 0.000000 1.000000 0.000000
vn 0.000000 -1.000000 0.000000
vn 0.000000 -1.000000 0.000000
vn 0.000000 -1.000000 0.000000
vn 0.000000 -1.000000 0.000000
vn 0.000000 -1.000000 0.000000
vn 0.000000 -1.000000 0.000000
vn 0.000000 -1.000000 0.000000
vn 0.000000 -1.000000 0.000000
vn 0.000000 -1.000000 0.000000
vn 0.000000 -1.000000 0.000000
vn 0.000000 -1.000000 0.000000
vn 0.000000 -1.000000 0.000000
vn 0.000000 -1.000000 0.000000
vn 0.000000 -1.000000 0.000000
vn 0.000000 -1.000000 0.000000
vn 0.000000 -1.000000 0.000000
vn 0.000000 -1.000000 0.000000
vn 0.000000 -1.000000 0.000000
vn -0.633699 0.000000 0.773580
vn -0.626904 0.000000 0.779096
vn -0.626904 0.000000 0.779096
vn -0.633699 0.000000 0.773580
vn -1.000000 0.000000 0.000000
vn -1.000000 0.000000 0.000000
vn -1.000000 0.000000 0.000000
vn -1.000000 0.000000 0.000000
vn -0.619964 0.000000 0.784631
vn -0.619964 0.000000 0.784631
vn 0.000000 0.000000 -1.000000
vn 0.000000 0.000000 -1.000000
vn 0.000000 0.000000 -1.000000
vn 0.000000 0.000000 -1.000000
vn 0.619964 0.000000 0.784631
vn 0.626904 0.000000 0.779096
vn 0.626904 0.000000 0.779096
vn 0.619964 0.000000 0.784631
vn 0.000000 0.000000 -1.000000
vn 0.000000 0.000000 -1.000000
vn 0.633699 0.000000 0.773580
vn 0.633699 0.000000 0.773580
vn 1.000000 0.000000 0.000000
vn 1.000000 0.000000 0.000000
vn 1.000000 0.000000 0.000000
vn 1.000000 0.000000 0.000000
vn 1.000000 0.000000 0.000000
vn 1.000000 0.000000 0.000000
vn 1.000000 0.000000 0.000000
vn 1.000000 0.000000 0.000000
vn -1.000000 0.000000 0.000000
vn -1.000000 0.000000 0.000000
vn 1.000000 0.000000 0.000000
vn 1.000000 0.000000 0.000000
vn -1.000000 0.000000 0.000000
vn -1.000000 0.000000 0.000000
vn -1.000000 0.000000 0.000000
vn -1.000000 0.000000 0.000000
vn 1.000000 0.000000 0.000000
vn 1.000000 0.000000 0.000000
vn 0.000000 0.000000 -1.000000
vn 0.000000 0.000000 -1.000000
vn 0.000000 0.000000 -1.000000
vn 0.000000 0.000000 -1.000000
vn -1.000000 0.000000 0.000000
vn -1.000000 0.000000 0.000000
vn 1.000000 0.000000 0.000000
vn 1.000000 0.000000 0.000000
vn 0.000000 0.000000 -1.000000
vn 0.000000 0.000000 -1.000000
vn 0.000000 0.000000 -1.000000
vn 0.000000 0.000000 -1.000000
vn -1.000000 0.000000 0.000000
vn -1.000000 0.000000 0.000000
s 1
g pCube2
usemtl initialShadingGroup
f 19/37/1 20/38/2 21/42/3 22/39/4
f 20/38/2 23/40/5 24/41/6 21/42/3
f 23/40/5 25/43/7 26/44/8 24/41/6
f 25/43/7 27/45/9 28/46/10 26/44/8
f 22/39/4 21/42/3 29/47/11 30/48/12
f 26/44/8 28/46/10 31/49/13 32/50/14
f 30/48/12 29/47/11 33/51/15 34/52/16
f 32/50/14 31/49/13 35/53/17 36/54/18
s 2
f 1/19/19 6/22/20 7/21/21 2/20/22
f 2/20/22 7/21/21 8/24/23 3/23/24
f 3/23/24 8/24/23 9/26/25 4/25/26
f 4/25/26 9/26/25 10/28/27 5/27/28
f 6/22/20 11/30/29 12/29/30 7/21/21
f 9/26/25 13/32/31 14/31/32 10/28/27
f 11/30/29 15/34/33 16/33/34 12/29/30
f 13/32/31 17/36/35 18/35/36 14/31/32
s 3
f 1/1/37 2/2/38 20/38/39 19/37/40
s 4
f 6/6/41 1/1/42 19/37/43 22/39/44
s 3
f 2/2/38 3/3/45 23/40/46 20/38/39
s 5
f 8/8/47 7/7/48 21/42/49 24/41/50
s 6
f 3/3/51 4/4/52 25/43/53 23/40/54
s 5
f 9/9/55 8/8/47 24/41/50 26/44/56
s 6
f 4/4/52 5/5/57 27/45/58 25/43/53
s 7
f 5/5/59 10/10/60 28/46/61 27/45/62
s 8
f 7/7/63 12/12/64 29/47/65 21/42/66
s 4
f 11/11/67 6/6/41 22/39/44 30/48/68
s 7
f 10/10/60 14/14/69 31/49/70 28/46/61
s 9
f 13/13/71 9/9/72 26/44/73 32/50/74
s 8
f 12/12/64 16/16/75 33/51/76 29/47/65
s off
f 16/16/77 15/15/78 34/52/79 33/51/80
s 4
f 15/15/81 11/11/67 30/48/68 34/52/82
s 7
f 14/14/69 18/18/83 35/53/84 31/49/70
s off
f 18/18/85 17/17/86 36/54/87 35/53/88
s 9
f 17/17/89 13/13/71 32/50/74 36/54/90
